<svg width="16" height="20" viewBox="0 0 16 20" fill="none" xmlns="http://www.w3.org/2000/svg">
<path d="M8 4V0L3 5L8 10V6C9.5913 6 11.1174 6.63214 12.2426 7.75736C13.3679 8.88258 14 10.4087 14 12C14 13.5913 13.3679 15.1174 12.2426 16.2426C11.1174 17.3679 9.5913 18 8 18C6.4087 18 4.88258 17.3679 3.75736 16.2426C2.63214 15.1174 2 13.5913 2 12H0C0 14.1217 0.842855 16.1566 2.34315 17.6569C3.84344 19.1571 5.87827 20 8 20C10.1217 20 12.1566 19.1571 13.6569 17.6569C15.1571 16.1566 16 14.1217 16 12C16 9.87827 15.1571 7.84344 13.6569 6.34315C12.1566 4.84285 10.1217 4 8 4Z" fill="#9E9E9E"/>
</svg>
